<svg xmlns="http://www.w3.org/2000/svg" width="500" height="500" viewBox="0 0 500 500"><path fill="#0123f8" d="M180.069 273.226c15.911 8.872 31.694 18.17 47.534 27.142 3.587 2.032 20.976 12.424 23.645 13.079.39 2.636-.034 14.8-.057 18.217-1.544-.408-8.8-4.891-10.783-6.003-15.18-8.506-30.186-17.35-45.415-25.783.154 2.137.045 5.54.048 7.798l.022 15.44c-4.917-3.026-10.072-5.884-15.075-8.788.311-3.188.065-8.305.133-11.66.198-9.724-.306-19.755-.052-29.442"/><path fill="#1623a7" d="M218.487 159.915c.369.603.24 17.106.247 19.307l-41.974 24.334q-.04 13.913.103 27.825a597 597 0 0 1-15.87 8.942c-.623-1.591-.246-41.814-.357-47.47 19.342-10.337 38.736-22.077 57.851-32.938"/><path fill="#1623a7" d="m251.007 196.325 60.438 34.444 20.668 11.642c3.174 1.786 7.849 4.265 10.86 6.204-3.721 2.203-12.368 7.62-15.897 9.197-5.658-2.795-12.38-6.845-17.915-10.025l-29.895-17.163L261 220.154c-1.995-1.138-8.472-4.67-9.883-5.937.316-3.784.08-14.031-.11-17.892"/><path fill="#0f6ffc" d="m159.293 249.774 52.68-30.8a1506 1506 0 0 1 24.786-14.532c4.26-2.476 9.945-5.988 14.248-8.117.19 3.86.426 14.108.11 17.892-2.194.859-7.454 4.068-9.777 5.409l-19.235 11.123-34.05 19.456c-4.634 2.652-9.33 5.193-13.894 7.96-3.506-1.526-11.237-6.272-14.868-8.39"/><defs><linearGradient id="a" x1="614.492" x2="510.985" y1="386.79" y2="369.301" gradientUnits="userSpaceOnUse"><stop offset="0" stop-color="#13229f"/><stop offset="1" stop-color="#0b2ff2"/></linearGradient></defs><path fill="url(#a)" d="M579.65 325.607c3.873 1.758 10.65 5.776 14.544 7.997 5.586 3.186 12.905 7.013 18.141 10.511l.184 61.665q.451 17.594.343 35.195c-7.595-4.179-23.625-13.029-30.503-17.771-4.201-.929-61.309-34.79-68.388-39.155l.098-2.767c-.296-7.994-.639-15.768-.449-23.777.014-3.494-.008-6.59-.192-10.075 3.747.198 58.737 33.165 66.915 37.405-.098-7.457-.404-15.81-.294-23.19-.183-11.631.344-24.574-.399-36.038" transform="scale(.48828)"/><path fill="#0f6ffc" d="M283.032 158.988c1.891.858 5.2 2.82 7.102 3.904 2.727 1.556 6.3 3.425 8.858 5.133-2.938 1.486-13.785 8.366-15.765 8.56-.09-5.68.168-12-.195-17.597"/><path fill="#0f6ffc" d="M299.081 198.135q.22 8.591.168 17.185c-3.709-2.04-11.536-6.362-14.894-8.678 4.1-1.904 10.884-6.083 14.726-8.507"/><path fill="#0123f8" d="m250.79 174.563.453-.052c.315 2.017.006 4.645.304 6.762.232 1.65-.3 3.249-.537 4.9-.144-3.904-.312-7.7-.22-11.61"/><defs><linearGradient id="b" x1="657.455" x2="506.314" y1="539.773" y2="593.803" gradientUnits="userSpaceOnUse"><stop offset="0" stop-color="#1f1e5e"/><stop offset="1" stop-color="#1028ca"/></linearGradient></defs><path fill="url(#b)" d="M514.362 585.915c2.663-2.032 5.669-3.618 8.531-5.355 18.513-11.238 37.448-21.691 56.227-32.46l30.969-17.867c4.375-2.525 13.452-8.056 17.809-9.784 6.225 3.582 26.571 14.996 31.408 18.638-14.489 8.63-29.822 16.844-44.53 25.191l-61.193 35.273-26.135 14.938c-3.524 2.012-9.796 5.345-13.037 7.486.339-3.879.219-8.233.519-12.356a1803 1803 0 0 1-.153-18.313c-.024-1.886-.219-3.513-.415-5.391" transform="scale(.48828)"/><path fill="#1623a7" d="m251.356 288.723.148-1.463c.178-.049.04-.021.517-.061.68.695 1.446 1.96 1.563 2.902-.482 1.498-.991 3.057-1.423 4.566-.338 1.18-.235 1.762-.73 2.998q-.06-4.47-.075-8.942"/><path fill="#0f6ffc" d="M194.606 254.354c2.47 1.148 5.667 3.084 8.098 4.469l11.57 6.588q12.35 7.11 24.82 14.002c2.202 1.232 10.359 6.163 12.06 6.678.095.917.19 1.712.202 2.632q.014 4.472.075 8.942c-.147 2.013-.088 4.14-.254 6.034-1.304-.37-8.756-4.848-10.316-5.763-16.238-9.515-33.156-18.303-49.297-27.939l-12.098-6.624c2.976-2.127 8.583-5.123 11.887-6.995 1.082-.66 2.203-1.32 3.253-2.024"/><path fill="#0d97fc" d="M179.466 263.373c2.976-2.127 8.583-5.123 11.887-6.995.331 2.425.342 10.821.211 13.62z"/><path fill="#1623a7" d="m306.416 281.3-.03.58c.014 2.52-.345 4.758-.45 7.222-.14 3.232-.117 6.82.014 10.062l.492.55-55.251 31.95c.023-3.417.448-15.581.057-18.217 1.117-.932 4.73-2.896 6.155-3.717q5.093-2.927 10.153-5.91c12.579-7.343 26.151-15.537 38.86-22.52"/><path fill="#0f6ffc" d="m305.95 299.164-.231-.026c-.823-1.677-.37-15.324.667-17.259.014 2.52-.345 4.76-.45 7.223-.14 3.232-.117 6.82.014 10.062"/><path fill="#1623a7" d="M251.01 339.443c3.87-2.858 11.008-6.341 15.345-8.972 10.252-6.219 20.99-12.104 31.244-18.287l.005 18.76-29.964 17.486c-4.294 2.501-12.876 7.238-16.705 9.955-.364-3.668.901-16.814.075-18.942"/><path fill="#0f6ffc" d="M204.633 313.13c3.525 1.696 8.342 4.678 11.82 6.698l22.07 12.69c3.612 2.055 8.839 5.17 12.487 6.925.826 2.128-.44 15.274-.075 18.942-3.355-1.61-6.677-4.06-9.953-5.85-11.97-6.546-24.21-14.404-36.262-20.668-.262-5.773-.087-12.864-.087-18.736"/><path fill="#0123f8" d="M264.054 225.334c1.983.548 16.308 16.277 19.54 18.687.988.737 5.273 5.072 6.282 6.123l-25.13 24.737-1.81-1.157c-2.518-1.594-7.121-4.368-9.29-6.18 4.343-4.989 13.235-13.14 18.151-17.471-5.77-5.267-13.534-12.198-18.916-17.73 3.63-2.482 7.358-4.82 11.173-7.01"/><path fill="#0f6ffc" d="M236.815 225.497c1.741.254 10.606 5.808 11.923 7.099-5.723 5.402-12.909 12.83-18.878 17.682 1.602 1.665 4.208 3.879 5.987 5.547a952 952 0 0 1 12.213 11.65c-2.496 1.823-5.148 3.54-7.724 5.257l-3.427 2.179a1999 1999 0 0 0-24.587-24.635c.982-1.137 2.319-2.398 3.39-3.466 7.083-7.068 14.298-13.97 21.103-21.313"/><path fill="#0123f8" d="m326.084 183.246 15.79 8.95c.3 1.06.173 7.663.173 9.3l-.012 20.898.025 17.422c-4.12-1.804-10.551-6.122-14.833-8.437-.14-.068-.567-.378-.713-.48-.685-1.696-.396-25.285-.425-29.228-.031-5.424-.403-13.256-.005-18.425"/><path fill="#0d97fc" d="m326.084 183.246 15.79 8.95-10.58 6.28c-1.109.66-4.263 2.457-5.205 3.195-.031-5.424-.403-13.256-.005-18.425"/><path fill="#0f6ffc" d="M327.227 231.379c1.062-1.159 12.528-7.746 14.808-8.985l.025 17.422c-4.12-1.804-10.551-6.122-14.833-8.437"/><path fill="#0123f8" d="M304.944 171.431c4.791 2.507 10.747 5.985 15.419 8.78-.041 10.034-.079 20.468.081 30.488.01 4.898.173 11.961-.132 16.725a952 952 0 0 0-14.923-8.295c-.561-.828-.437-26.322-.45-29.567z"/><path fill="#0f6ffc" d="M304.944 171.431c4.791 2.507 10.747 5.985 15.419 8.78-4.735 2.978-11.017 6.398-15.424 9.351z"/><path fill="#0d97fc" d="M305.389 219.13c2.097-.896 14.217-8.639 15.055-8.431.01 4.898.173 11.961-.132 16.725a952 952 0 0 0-14.923-8.295"/><path fill="#1623a7" d="M306.416 281.3c4.39-2.934 11.326-6.62 16.081-9.308a1925 1925 0 0 0 .006 41.503c-4.319 2.676-11.625 7.204-16.103 9.4.002-6.615-.328-16.855.042-23.18l-.492-.55c-.131-3.244-.154-6.831-.015-10.063.106-2.464.465-4.702.451-7.223z"/><path fill="#0f6ffc" d="m218.369 187.478.355.163c.3 5.05.034 13.481.075 18.829-4.031 1.963-9.033 5.041-12.978 7.333l-22.079 12.807c-.234-.055-.073-.003-.427-.274-.01-6.056-.13-12.255.012-18.293 11.954-6.76 23.247-13.766 35.042-20.565"/><defs><linearGradient id="c" x1="569.174" x2="506.974" y1="325.686" y2="318.951" gradientUnits="userSpaceOnUse"><stop offset="0" stop-color="#1327b0"/><stop offset="1" stop-color="#0b2eff"/></linearGradient></defs><path fill="url(#c)" d="M513.762 287.886c5.966 2.942 12.744 7.151 18.641 10.555a2761 2761 0 0 0 34.552 19.854q.207 19.946.105 39.893c-9.523-5.768-20.747-11.581-30.498-17.099-5.116-2.896-19.267-11.179-23.87-12.471-2.444-4.34-1.363-21.465-2.675-28.388.041-2.517-.58-6.844-1.528-9.188 1.62-.974 3.651-2.281 5.273-3.156" transform="scale(.48828)"/><path fill="#0f6ffc" d="M248.286 142.11c.462 1.145.766 3.258.746 4.487.64 3.38.112 11.742 1.306 13.86l-.474.366a618 618 0 0 1-24.369 13.963c.083-6.382.188-12.891-.145-19.258 1.75-1.265 5.428-3.31 7.384-4.461q7.75-4.521 15.552-8.957"/><path fill="#0d97fc" d="M249.864 160.823c-.724-2.29-1.395-12.06-.832-14.226.64 3.38.112 11.742 1.306 13.86z"/><path fill="#0d97fc" d="M225.367 184.33c8.171-5.017 16.987-9.971 25.33-14.687.09 1.702.1 3.214.094 4.92-.093 3.91.075 7.706.22 11.61l-.049 1.35c-1.543.677-4.327 2.56-5.964 3.43-6.39 3.395-13.175 8.12-19.524 11.329.154-5.77-.036-12.13-.107-17.951"/></svg>