<svg width="150" height="25" viewBox="0 0 150 25" fill="none" xmlns="http://www.w3.org/2000/svg">
<g id="Group 1321315689">
<g id="Group 1321315587">
<path id="Union" fill-rule="evenodd" clip-rule="evenodd" d="M142.891 2.67734H146.049V5.88136H149.997V9.02586H146.049V15.3713V15.5579C146.049 16.2719 146.049 16.6289 146.153 16.9147C146.328 17.3927 146.704 17.7692 147.182 17.9434C147.468 18.0476 147.825 18.0476 148.539 18.0476H149.997V20.8543L147.443 20.8543C144.929 20.8543 142.891 18.8164 142.891 16.3026V16.1706V2.67734ZM67.4154 19.5997C68.6242 18.6054 69.3748 17.2407 69.6672 15.5055H66.4504C66.2554 16.3828 65.8362 17.0847 65.1929 17.6111C64.5495 18.118 63.7404 18.3714 62.7656 18.3714C61.4984 18.3714 60.4748 17.9133 59.695 16.997C58.9346 16.0611 58.5545 14.8524 58.5545 13.3707C58.5545 11.9085 58.9346 10.7192 59.695 9.80293C60.4748 8.88662 61.4984 8.42847 62.7656 8.42847C63.7014 8.42847 64.491 8.68191 65.1344 9.18881C65.7777 9.69571 66.2067 10.3781 66.4211 11.2359H69.6672C69.3748 9.53974 68.6339 8.20426 67.4446 7.22946C66.2554 6.23517 64.725 5.73802 62.8533 5.73802C61.3522 5.73802 60.0264 6.0597 58.8762 6.70307C57.7454 7.32694 56.8681 8.21401 56.2442 9.36427C55.6203 10.5145 55.3084 11.85 55.3084 13.3707C55.3084 14.8914 55.6106 16.2366 56.215 17.4064C56.8388 18.5761 57.7162 19.4827 58.8469 20.1261C59.9777 20.7499 61.2839 21.0619 62.7656 21.0619C64.6567 21.0619 66.2067 20.5745 67.4154 19.5997ZM78.2397 21.0619C76.7385 21.0619 75.403 20.7499 74.2333 20.1261C73.083 19.4827 72.1862 18.5859 71.5428 17.4356C70.919 16.2659 70.607 14.9206 70.607 13.3999C70.607 11.8988 70.919 10.573 71.5428 9.42276C72.1862 8.253 73.083 7.34644 74.2333 6.70307C75.403 6.0597 76.7385 5.73802 78.2397 5.73802C79.7409 5.73802 81.0666 6.0597 82.2169 6.70307C83.3866 7.34644 84.2835 8.253 84.9073 9.42276C85.5507 10.573 85.8724 11.8988 85.8724 13.3999C85.8724 14.9206 85.5507 16.2659 84.9073 17.4356C84.2835 18.5859 83.3866 19.4827 82.2169 20.1261C81.0666 20.7499 79.7409 21.0619 78.2397 21.0619ZM78.2397 18.3714C79.5654 18.3714 80.628 17.9133 81.4273 16.997C82.2461 16.0611 82.6555 14.8621 82.6555 13.3999C82.6555 11.9377 82.2461 10.7485 81.4273 9.83218C80.628 8.89637 79.5654 8.42847 78.2397 8.42847C76.914 8.42847 75.8514 8.89637 75.0521 9.83218C74.2528 10.7485 73.8531 11.9377 73.8531 13.3999C73.8531 14.8621 74.2528 16.0611 75.0521 16.997C75.8514 17.9133 76.914 18.3714 78.2397 18.3714ZM114.496 19.5997C115.704 18.6054 116.455 17.2407 116.747 15.5055H113.531C113.336 16.3828 112.916 17.0847 112.273 17.6111C111.63 18.118 110.821 18.3714 109.846 18.3714C108.579 18.3714 107.555 17.9133 106.775 16.997C106.015 16.0611 105.635 14.8524 105.635 13.3707C105.635 11.9085 106.015 10.7192 106.775 9.80293C107.555 8.88662 108.579 8.42847 109.846 8.42847C110.782 8.42847 111.571 8.68191 112.215 9.18881C112.858 9.69571 113.287 10.3781 113.501 11.2359H116.747C116.455 9.53974 115.714 8.20426 114.525 7.22946C113.336 6.23517 111.805 5.73802 109.934 5.73802C108.432 5.73802 107.107 6.0597 105.956 6.70307C104.826 7.32694 103.948 8.21401 103.324 9.36427C102.701 10.5145 102.389 11.85 102.389 13.3707C102.389 14.8914 102.691 16.2366 103.295 17.4064C103.919 18.5761 104.796 19.4827 105.927 20.1261C107.058 20.7499 108.364 21.0619 109.846 21.0619C111.737 21.0619 113.287 20.5745 114.496 19.5997ZM118.595 9.39368C117.99 10.5439 117.688 11.8892 117.688 13.4294C117.688 14.95 118 16.2855 118.624 17.4358C119.267 18.586 120.164 19.4829 121.314 20.1262C122.484 20.7501 123.849 21.062 125.408 21.062C127.202 21.062 128.693 20.5746 129.883 19.5998C131.091 18.625 131.832 17.3773 132.105 15.8566H128.947C128.732 16.6949 128.294 17.348 127.631 17.816C126.968 18.2644 126.149 18.4886 125.174 18.4886C123.946 18.4886 122.962 18.1084 122.221 17.348C121.48 16.5877 121.07 15.5544 120.993 14.2482V14.0727H132.281C132.339 13.6633 132.368 13.2636 132.368 12.8737C132.349 11.431 132.018 10.1735 131.374 9.10124C130.75 8.02896 129.883 7.20038 128.771 6.6155C127.68 6.03062 126.412 5.73818 124.97 5.73818C123.546 5.73818 122.279 6.05987 121.168 6.70323C120.076 7.32711 119.218 8.22392 118.595 9.39368ZM127.836 9.21822C128.576 9.82259 129.015 10.6707 129.152 11.7624H121.109C121.226 10.7097 121.655 9.87133 122.396 9.24746C123.157 8.60409 124.053 8.28241 125.087 8.28241C126.198 8.28241 127.114 8.59435 127.836 9.21822ZM133.606 11.748V10.575C133.606 7.98274 135.708 5.88079 138.301 5.88079L139.474 5.88079H141.637V9.02952L138.321 9.02952C137.456 9.02952 136.755 9.73077 136.755 10.5958V20.8544H133.606V11.748ZM35.1602 7.31724H38.3185V20.8543H35.1602V7.31724ZM43.2071 12.7451C43.2071 10.6239 44.9267 8.90437 47.0478 8.90437C49.169 8.90437 50.8885 10.6239 50.8885 12.7451L50.8885 20.8543L54.0549 20.8543V12.7451C54.0549 8.87518 50.9177 5.73802 47.0478 5.73802C43.1779 5.73802 40.0408 8.87518 40.0408 12.7451L40.0408 20.8543H43.2071V12.7451ZM94.132 8.90437C92.0109 8.90437 90.2913 10.6239 90.2913 12.7451L90.2913 20.8543H87.125V12.7451C87.125 8.87518 90.2621 5.73802 94.132 5.73802C98.0019 5.73802 101.139 8.87518 101.139 12.7451V20.8543L97.9727 20.8543V12.7451C97.9727 10.6239 96.2532 8.90437 94.132 8.90437ZM38.3185 2.67734H35.1602V5.88083H38.3185V2.67734Z" fill="#151219"/>
</g>
<path id="Union_2" fill-rule="evenodd" clip-rule="evenodd" d="M8.47305 0.564057L17.3424 0.561249C18.9683 0.560733 20.4708 1.42806 21.2836 2.83625L25.7186 10.5206C25.8762 10.7937 25.7031 11.1389 25.3901 11.1763C18.038 12.0543 10.984 7.98265 8.06952 1.17601C7.94549 0.886327 8.15793 0.564157 8.47305 0.564057ZM5.04726 22.4582L0.610144 14.7785C-0.203249 13.3707 -0.20339 11.6358 0.609774 10.2278L5.04715 2.54481C5.20482 2.27182 5.59032 2.24903 5.77921 2.50143C10.2156 8.42955 10.2165 16.5743 5.77899 22.5017C5.59013 22.7539 5.2049 22.731 5.04726 22.4582ZM17.3422 24.4387L8.47286 24.4359C8.15774 24.4358 7.9453 24.1137 8.06933 23.824C10.9838 17.0173 18.0378 12.9457 25.3899 13.8237C25.703 13.8611 25.876 14.2063 25.7184 14.4793L21.2834 22.1637C20.4707 23.5719 18.9681 24.4393 17.3422 24.4387Z" fill="#151219"/>
</g>
</svg>
